<?xml version="1.0" encoding="utf-8"?>
<!-- Generator: Adobe Illustrator 21.0.0, SVG Export Plug-In . SVG Version: 6.00 Build 0)  -->
<svg version="1.1" id="Layer_1" xmlns="http://www.w3.org/2000/svg" xmlns:xlink="http://www.w3.org/1999/xlink" x="0px" y="0px"
	 viewBox="0 0 300 300" style="enable-background:new 0 0 300 300;" xml:space="preserve">
<style type="text/css">
	.st0{fill:#B9A7B5;}
	.st1{fill:#A7B9A9;}
	.st2{fill:#E8D0AE;}
	.st3{fill:#9F5788;}
	.st4{fill:#C45A5A;}
	.st5{fill:#C9E2CC;}
	.st6{fill:#E4517A;}
	.st7{fill:#3A6788;}
	.st8{fill:#9DFCFE;}
	.st9{fill:#E87322;}
	.st10{fill:#4F6254;}
	.st11{fill:#3B3014;}
	.st12{fill:#C5FEC7;}
	.st13{fill:#9FCEFC;}
	.st14{fill:#1F888B;}
	.st15{fill:#BBA89E;}
	.st16{fill:#FCE6AD;}
	.st17{fill:#E7E1E3;}
	.st18{fill:#BAAC89;}
	.st19{fill:#83C45A;}
	.st20{fill:#199919;}
	.st21{fill:#23ADE8;}
	.st22{fill:#9B9DB6;}
	.st23{fill:#9C450A;}
	.st24{fill:#779579;}
	.st25{fill:#FF779F;}
	.st26{fill:#FFFFFF;}
</style>
<rect class="st0" width="300" height="300"/>
<g>
	<path class="st26" d="M163.8,204.2l-1.7-9h-0.6c-5.9,7.2-15.1,11.1-25.9,11.1c-18.3,0-29.2-13.3-29.2-27.7
		c0-23.5,21.1-34.7,53-34.5v-1.3c0-4.8-2.6-11.6-16.4-11.6c-9.2,0-19,3.1-24.9,6.8l-5.2-18.1c6.3-3.5,18.7-7.9,35.1-7.9
		c30.1,0,39.7,17.7,39.7,39v31.4c0,8.7,0.4,17,1.3,22H163.8z M160.5,161.5c-14.8-0.2-26.2,3.3-26.2,14.2c0,7.2,4.8,10.7,11.1,10.7
		c7,0,12.7-4.6,14.6-10.3c0.4-1.5,0.6-3.1,0.6-4.8V161.5z"/>
</g>
</svg>
