<?xml version="1.0" encoding="utf-8"?>
<!-- Generator: Adobe Illustrator 21.0.0, SVG Export Plug-In . SVG Version: 6.00 Build 0)  -->
<svg version="1.1" id="Layer_1" xmlns="http://www.w3.org/2000/svg" xmlns:xlink="http://www.w3.org/1999/xlink" x="0px" y="0px"
	 viewBox="0 0 300 300" style="enable-background:new 0 0 300 300;" xml:space="preserve">
<style type="text/css">
	.st0{fill:#B9A7B5;}
	.st1{fill:#A7B9A9;}
	.st2{fill:#E8D0AE;}
	.st3{fill:#9F5788;}
	.st4{fill:#C45A5A;}
	.st5{fill:#C9E2CC;}
	.st6{fill:#E4517A;}
	.st7{fill:#3A6788;}
	.st8{fill:#9DFCFE;}
	.st9{fill:#E87322;}
	.st10{fill:#4F6254;}
	.st11{fill:#3B3014;}
	.st12{fill:#C5FEC7;}
	.st13{fill:#9FCEFC;}
	.st14{fill:#1F888B;}
	.st15{fill:#BBA89E;}
	.st16{fill:#FCE6AD;}
	.st17{fill:#E7E1E3;}
	.st18{fill:#BAAC89;}
	.st19{fill:#83C45A;}
	.st20{fill:#199919;}
	.st21{fill:#23ADE8;}
	.st22{fill:#9B9DB6;}
	.st23{fill:#9C450A;}
	.st24{fill:#779579;}
	.st25{fill:#FF779F;}
	.st26{fill:#FFFFFF;}
</style>
<rect class="st1" width="300" height="300"/>
<g>
	<path class="st26" d="M105.3,204.2c0.4-5.9,0.7-16.8,0.7-27V73.1h28.1v51.5h0.4c5.4-7.8,14.8-12.7,27.3-12.7
		c21.6,0,37.5,17.9,37.3,45.6c0,32.5-20.7,48.8-41.4,48.8c-10.5,0-20.7-3.9-27.1-14.6h-0.4l-1.1,12.6H105.3z M134.1,165.8
		c0,1.8,0.2,3.5,0.6,5c1.8,7.6,8.3,13.3,16.4,13.3c12,0,19.4-9.2,19.4-25.5c0-14-6.3-25.1-19.4-25.1c-7.6,0-14.6,5.7-16.4,13.8
		c-0.4,1.7-0.6,3.3-0.6,5.2V165.8z"/>
</g>
</svg>
