<?xml version="1.0" encoding="utf-8"?>
<!-- Generator: Adobe Illustrator 21.0.0, SVG Export Plug-In . SVG Version: 6.00 Build 0)  -->
<svg version="1.1" id="Layer_1" xmlns="http://www.w3.org/2000/svg" xmlns:xlink="http://www.w3.org/1999/xlink" x="0px" y="0px"
	 viewBox="0 0 300 300" style="enable-background:new 0 0 300 300;" xml:space="preserve">
<style type="text/css">
	.st0{fill:#B9A7B5;}
	.st1{fill:#A7B9A9;}
	.st2{fill:#E8D0AE;}
	.st3{fill:#9F5788;}
	.st4{fill:#C45A5A;}
	.st5{fill:#C9E2CC;}
	.st6{fill:#E4517A;}
	.st7{fill:#3A6788;}
	.st8{fill:#9DFCFE;}
	.st9{fill:#E87322;}
	.st10{fill:#4F6254;}
	.st11{fill:#3B3014;}
	.st12{fill:#C5FEC7;}
	.st13{fill:#9FCEFC;}
	.st14{fill:#1F888B;}
	.st15{fill:#BBA89E;}
	.st16{fill:#FCE6AD;}
	.st17{fill:#E7E1E3;}
	.st18{fill:#BAAC89;}
	.st19{fill:#83C45A;}
	.st20{fill:#199919;}
	.st21{fill:#23ADE8;}
	.st22{fill:#9B9DB6;}
	.st23{fill:#9C450A;}
	.st24{fill:#779579;}
	.st25{fill:#FF779F;}
	.st26{fill:#FFFFFF;}
</style>
<rect class="st3" width="300" height="300"/>
<g>
	<path class="st26" d="M193.8,73.1v104.1c0,10.2,0.4,20.9,0.7,27h-24.9l-1.3-13.3h-0.4c-5.7,10.2-16.6,15.3-28.3,15.3
		c-21.4,0-38.6-18.3-38.6-46.4c-0.2-30.5,18.8-48,40.4-48c11.1,0,19.8,3.9,23.8,10.2h0.4V73.1H193.8z M165.7,152.1
		c0-1.5-0.2-3.5-0.4-5c-1.7-7.6-7.8-13.8-16.4-13.8c-12.7,0-19.4,11.4-19.4,25.7c0,15.3,7.6,24.9,19.2,24.9
		c8.1,0,14.6-5.5,16.2-13.5c0.6-2,0.7-4.1,0.7-6.5V152.1z"/>
</g>
</svg>
