<?xml version="1.0" encoding="utf-8"?>
<!-- Generator: Adobe Illustrator 21.0.0, SVG Export Plug-In . SVG Version: 6.00 Build 0)  -->
<svg version="1.1" id="Layer_1" xmlns="http://www.w3.org/2000/svg" xmlns:xlink="http://www.w3.org/1999/xlink" x="0px" y="0px"
	 viewBox="0 0 300 300" style="enable-background:new 0 0 300 300;" xml:space="preserve">
<style type="text/css">
	.st0{fill:#B9A7B5;}
	.st1{fill:#A7B9A9;}
	.st2{fill:#E8D0AE;}
	.st3{fill:#9F5788;}
	.st4{fill:#C45A5A;}
	.st5{fill:#C9E2CC;}
	.st6{fill:#E4517A;}
	.st7{fill:#3A6788;}
	.st8{fill:#9DFCFE;}
	.st9{fill:#E87322;}
	.st10{fill:#4F6254;}
	.st11{fill:#3B3014;}
	.st12{fill:#C5FEC7;}
	.st13{fill:#9FCEFC;}
	.st14{fill:#1F888B;}
	.st15{fill:#BBA89E;}
	.st16{fill:#FCE6AD;}
	.st17{fill:#E7E1E3;}
	.st18{fill:#BAAC89;}
	.st19{fill:#83C45A;}
	.st20{fill:#199919;}
	.st21{fill:#23ADE8;}
	.st22{fill:#9B9DB6;}
	.st23{fill:#9C450A;}
	.st24{fill:#779579;}
	.st25{fill:#FF779F;}
	.st26{fill:#FFFFFF;}
</style>
<rect x="-1" class="st4" width="300" height="300"/>
<g>
	<path class="st26" d="M133.1,168c0.9,11.6,12.4,17.2,25.5,17.2c9.6,0,17.4-1.3,24.9-3.7l3.7,19c-9.2,3.7-20.5,5.5-32.7,5.5
		c-30.7,0-48.2-17.7-48.2-46c0-22.9,14.2-48.2,45.6-48.2c29.2,0,40.3,22.7,40.3,45.1c0,4.8-0.6,9-0.9,11.1H133.1z M166.2,148.8
		c0-6.8-3-18.3-15.9-18.3c-11.8,0-16.6,10.7-17.4,18.3H166.2z"/>
</g>
</svg>
