<?xml version="1.0" encoding="utf-8"?>
<!-- Generator: Adobe Illustrator 21.0.0, SVG Export Plug-In . SVG Version: 6.00 Build 0)  -->
<svg version="1.1" id="Layer_1" xmlns="http://www.w3.org/2000/svg" xmlns:xlink="http://www.w3.org/1999/xlink" x="0px" y="0px"
	 viewBox="0 0 300 300" style="enable-background:new 0 0 300 300;" xml:space="preserve">
<style type="text/css">
	.st0{fill:#B9A7B5;}
	.st1{fill:#A7B9A9;}
	.st2{fill:#E8D0AE;}
	.st3{fill:#9F5788;}
	.st4{fill:#C45A5A;}
	.st5{fill:#C9E2CC;}
	.st6{fill:#E4517A;}
	.st7{fill:#3A6788;}
	.st8{fill:#9DFCFE;}
	.st9{fill:#E87322;}
	.st10{fill:#4F6254;}
	.st11{fill:#3B3014;}
	.st12{fill:#C5FEC7;}
	.st13{fill:#9FCEFC;}
	.st14{fill:#1F888B;}
	.st15{fill:#BBA89E;}
	.st16{fill:#FCE6AD;}
	.st17{fill:#E7E1E3;}
	.st18{fill:#BAAC89;}
	.st19{fill:#83C45A;}
	.st20{fill:#199919;}
	.st21{fill:#23ADE8;}
	.st22{fill:#9B9DB6;}
	.st23{fill:#9C450A;}
	.st24{fill:#779579;}
	.st25{fill:#FF779F;}
	.st26{fill:#FFFFFF;}
</style>
<rect y="1" class="st6" width="300" height="300"/>
<g>
	<path class="st26" d="M193.5,114.9c-0.4,5.7-0.7,13.3-0.7,26.8v50.4c0,17.4-3.5,31.6-13.7,40.6c-10,8.5-23.5,11.1-36.7,11.1
		c-11.8,0-24.4-2.4-32.5-7l5.5-21.2c5.7,3.3,15.7,6.8,26.2,6.8c13.3,0,23.5-7.2,23.5-23.8v-5.9h-0.4c-5.4,7.6-14,11.8-24.4,11.8
		c-22.3,0-38.2-18.1-38.2-44.1c0-29,18.8-47.5,41-47.5c12.4,0,20.1,5.4,24.7,12.7h0.4l0.9-10.7H193.5z M164.7,151.6
		c0-1.8-0.2-3.7-0.6-5.2c-2-7.4-7.4-12.4-15.1-12.4c-10.2,0-18.5,9.2-18.5,25.7c0,13.5,6.6,24,18.5,24c7.2,0,12.9-4.8,14.8-11.4
		c0.7-2,0.9-5,0.9-7.4V151.6z"/>
</g>
</svg>
