<?xml version="1.0" encoding="utf-8"?>
<!-- Generator: Adobe Illustrator 21.0.0, SVG Export Plug-In . SVG Version: 6.00 Build 0)  -->
<svg version="1.1" id="Layer_1" xmlns="http://www.w3.org/2000/svg" xmlns:xlink="http://www.w3.org/1999/xlink" x="0px" y="0px"
	 viewBox="0 0 300 300" style="enable-background:new 0 0 300 300;" xml:space="preserve">
<style type="text/css">
	.st0{fill:#B9A7B5;}
	.st1{fill:#A7B9A9;}
	.st2{fill:#E8D0AE;}
	.st3{fill:#9F5788;}
	.st4{fill:#C45A5A;}
	.st5{fill:#C9E2CC;}
	.st6{fill:#E4517A;}
	.st7{fill:#3A6788;}
	.st8{fill:#9DFCFE;}
	.st9{fill:#E87322;}
	.st10{fill:#4F6254;}
	.st11{fill:#3B3014;}
	.st12{fill:#C5FEC7;}
	.st13{fill:#9FCEFC;}
	.st14{fill:#1F888B;}
	.st15{fill:#BBA89E;}
	.st16{fill:#FCE6AD;}
	.st17{fill:#E7E1E3;}
	.st18{fill:#BAAC89;}
	.st19{fill:#83C45A;}
	.st20{fill:#199919;}
	.st21{fill:#23ADE8;}
	.st22{fill:#9B9DB6;}
	.st23{fill:#9C450A;}
	.st24{fill:#779579;}
	.st25{fill:#FF779F;}
	.st26{fill:#FFFFFF;}
</style>
<rect x="-0.5" y="1.2" class="st12" width="300" height="300"/>
<g>
	<path class="st26" d="M81.4,143.9c0-11.3-0.4-20.9-0.7-28.8h23.6l1.3,12.2h0.6c3.9-5.7,11.8-14.2,27.3-14.2
		c11.6,0,20.9,5.9,24.7,15.3h0.4c3.3-4.6,7.4-8.3,11.6-10.9c5-3,10.5-4.4,17.2-4.4c17.4,0,30.5,12.2,30.5,39.1v53.2h-27.3v-49.1
		c0-13.1-4.2-20.7-13.3-20.7c-6.5,0-11.1,4.4-12.9,9.8c-0.7,2-1.1,5-1.1,7.2v52.8h-27.3v-50.6c0-11.4-4.1-19.2-12.9-19.2
		c-7.2,0-11.4,5.5-13.1,10.2c-0.9,2.2-1.1,4.8-1.1,7v52.6H81.4V143.9z"/>
</g>
</svg>
