<?xml version="1.0" encoding="utf-8"?>
<!-- Generator: Adobe Illustrator 21.0.0, SVG Export Plug-In . SVG Version: 6.00 Build 0)  -->
<svg version="1.1" id="Layer_1" xmlns="http://www.w3.org/2000/svg" xmlns:xlink="http://www.w3.org/1999/xlink" x="0px" y="0px"
	 viewBox="0 0 300 300" style="enable-background:new 0 0 300 300;" xml:space="preserve">
<style type="text/css">
	.st0{fill:#B9A7B5;}
	.st1{fill:#A7B9A9;}
	.st2{fill:#E8D0AE;}
	.st3{fill:#9F5788;}
	.st4{fill:#C45A5A;}
	.st5{fill:#C9E2CC;}
	.st6{fill:#E4517A;}
	.st7{fill:#3A6788;}
	.st8{fill:#9DFCFE;}
	.st9{fill:#E87322;}
	.st10{fill:#4F6254;}
	.st11{fill:#3B3014;}
	.st12{fill:#C5FEC7;}
	.st13{fill:#9FCEFC;}
	.st14{fill:#1F888B;}
	.st15{fill:#BBA89E;}
	.st16{fill:#FCE6AD;}
	.st17{fill:#E7E1E3;}
	.st18{fill:#BAAC89;}
	.st19{fill:#83C45A;}
	.st20{fill:#199919;}
	.st21{fill:#23ADE8;}
	.st22{fill:#9B9DB6;}
	.st23{fill:#9C450A;}
	.st24{fill:#779579;}
	.st25{fill:#FF779F;}
	.st26{fill:#FFFFFF;}
</style>
<rect y="1" class="st15" width="300" height="300"/>
<g>
	<path class="st26" d="M106,145.2c0-11.8-0.4-22-0.7-30.3h24.4l1.3,12.6h0.4c6.6-9.6,17-14.6,30.1-14.6c19.8,0,37.5,17.2,37.5,46
		c0,32.9-20.9,48.4-41,48.4c-10.9,0-19.4-4.4-23.5-10.3h-0.4v44.9H106V145.2z M134.1,166.4c0,2.2,0.2,4.2,0.6,5.9
		c1.8,7.6,8.3,13.3,16.4,13.3c12.2,0,19.4-10.2,19.4-25.5c0-14.4-6.5-25.3-19-25.3c-7.9,0-15,5.9-16.8,14.2c-0.4,1.5-0.6,3.3-0.6,5
		V166.4z"/>
</g>
</svg>
