<?xml version="1.0" encoding="utf-8"?>
<!-- Generator: Adobe Illustrator 21.0.0, SVG Export Plug-In . SVG Version: 6.00 Build 0)  -->
<svg version="1.1" id="Layer_1" xmlns="http://www.w3.org/2000/svg" xmlns:xlink="http://www.w3.org/1999/xlink" x="0px" y="0px"
	 viewBox="0 0 300 300" style="enable-background:new 0 0 300 300;" xml:space="preserve">
<style type="text/css">
	.st0{fill:#B9A7B5;}
	.st1{fill:#A7B9A9;}
	.st2{fill:#E8D0AE;}
	.st3{fill:#9F5788;}
	.st4{fill:#C45A5A;}
	.st5{fill:#C9E2CC;}
	.st6{fill:#E4517A;}
	.st7{fill:#3A6788;}
	.st8{fill:#9DFCFE;}
	.st9{fill:#E87322;}
	.st10{fill:#4F6254;}
	.st11{fill:#3B3014;}
	.st12{fill:#C5FEC7;}
	.st13{fill:#9FCEFC;}
	.st14{fill:#1F888B;}
	.st15{fill:#BBA89E;}
	.st16{fill:#FCE6AD;}
	.st17{fill:#E7E1E3;}
	.st18{fill:#BAAC89;}
	.st19{fill:#83C45A;}
	.st20{fill:#199919;}
	.st21{fill:#23ADE8;}
	.st22{fill:#9B9DB6;}
	.st23{fill:#9C450A;}
	.st24{fill:#779579;}
	.st25{fill:#FF779F;}
	.st26{fill:#FFFFFF;}
</style>
<rect y="1" class="st16" width="300" height="300"/>
<g>
	<path class="st26" d="M165.8,193.9h-0.4c-5.7,8.5-14.8,13.3-26.8,13.3c-19.6,0-37.5-17.2-37.5-46c0-32.3,20.7-48.4,39.9-48.4
		c11.6,0,20.1,4.2,25.1,12.6h0.4l0.7-10.5h27.1c-0.2,8.7-0.6,17.7-0.6,27.1v99.7h-28.1V193.9z M165.8,152.8c0-1.5-0.2-3.1-0.6-4.6
		c-1.5-7.2-7.6-13.5-16.1-13.5c-12.9,0-19.4,10.9-19.4,25.5c0,15.1,7.2,24.9,19,24.9c7.9,0,14.4-5.4,16.2-12.7
		c0.6-1.8,0.7-4.2,0.7-6.1V152.8z"/>
</g>
</svg>
