<?xml version="1.0" encoding="utf-8"?>
<!-- Generator: Adobe Illustrator 21.0.0, SVG Export Plug-In . SVG Version: 6.00 Build 0)  -->
<svg version="1.1" id="Layer_1" xmlns="http://www.w3.org/2000/svg" xmlns:xlink="http://www.w3.org/1999/xlink" x="0px" y="0px"
	 viewBox="0 0 300 300" style="enable-background:new 0 0 300 300;" xml:space="preserve">
<style type="text/css">
	.st0{fill:#B9A7B5;}
	.st1{fill:#A7B9A9;}
	.st2{fill:#E8D0AE;}
	.st3{fill:#9F5788;}
	.st4{fill:#C45A5A;}
	.st5{fill:#C9E2CC;}
	.st6{fill:#E4517A;}
	.st7{fill:#3A6788;}
	.st8{fill:#9DFCFE;}
	.st9{fill:#E87322;}
	.st10{fill:#4F6254;}
	.st11{fill:#3B3014;}
	.st12{fill:#C5FEC7;}
	.st13{fill:#9FCEFC;}
	.st14{fill:#1F888B;}
	.st15{fill:#BBA89E;}
	.st16{fill:#FCE6AD;}
	.st17{fill:#E7E1E3;}
	.st18{fill:#BAAC89;}
	.st19{fill:#83C45A;}
	.st20{fill:#199919;}
	.st21{fill:#23ADE8;}
	.st22{fill:#9B9DB6;}
	.st23{fill:#9C450A;}
	.st24{fill:#779579;}
	.st25{fill:#FF779F;}
	.st26{fill:#FFFFFF;}
</style>
<rect class="st18" width="300" height="300"/>
<g>
	<path class="st26" d="M121,179.6c5.2,3.1,15.9,6.8,24.2,6.8c8.5,0,12-3,12-7.6c0-4.6-2.8-6.8-13.3-10.3
		c-18.7-6.3-25.9-16.4-25.7-27.1c0-16.8,14.4-29.5,36.7-29.5c10.5,0,19.9,2.4,25.5,5.2l-5,19.4c-4.1-2.2-11.8-5.2-19.6-5.2
		c-6.8,0-10.7,2.8-10.7,7.4c0,4.2,3.5,6.5,14.6,10.3c17.2,5.9,24.4,14.6,24.6,27.9c0,16.8-13.3,29.2-39.1,29.2
		c-11.8,0-22.3-2.6-29.2-6.3L121,179.6z"/>
</g>
</svg>
