<?xml version="1.0" encoding="utf-8"?>
<!-- Generator: Adobe Illustrator 21.0.0, SVG Export Plug-In . SVG Version: 6.00 Build 0)  -->
<svg version="1.1" id="Layer_1" xmlns="http://www.w3.org/2000/svg" xmlns:xlink="http://www.w3.org/1999/xlink" x="0px" y="0px"
	 viewBox="0 0 300 300" style="enable-background:new 0 0 300 300;" xml:space="preserve">
<style type="text/css">
	.st0{fill:#B9A7B5;}
	.st1{fill:#A7B9A9;}
	.st2{fill:#E8D0AE;}
	.st3{fill:#9F5788;}
	.st4{fill:#C45A5A;}
	.st5{fill:#C9E2CC;}
	.st6{fill:#E4517A;}
	.st7{fill:#3A6788;}
	.st8{fill:#9DFCFE;}
	.st9{fill:#E87322;}
	.st10{fill:#4F6254;}
	.st11{fill:#3B3014;}
	.st12{fill:#C5FEC7;}
	.st13{fill:#9FCEFC;}
	.st14{fill:#1F888B;}
	.st15{fill:#BBA89E;}
	.st16{fill:#FCE6AD;}
	.st17{fill:#E7E1E3;}
	.st18{fill:#BAAC89;}
	.st19{fill:#83C45A;}
	.st20{fill:#199919;}
	.st21{fill:#23ADE8;}
	.st22{fill:#9B9DB6;}
	.st23{fill:#9C450A;}
	.st24{fill:#779579;}
	.st25{fill:#FF779F;}
	.st26{fill:#FFFFFF;}
</style>
<rect y="1" class="st20" width="300" height="300"/>
<g>
	<path class="st26" d="M134,114.9l13.5,44.3c1.5,5.4,3.3,12,4.4,16.8h0.6c1.3-4.8,2.8-11.6,4.1-16.8l11.1-44.3h30.1l-21.1,59.5
		c-12.9,35.8-21.6,50.2-31.8,59.3c-9.8,8.5-20.1,11.4-27.1,12.4l-5.9-23.8c3.5-0.6,7.9-2.2,12.2-4.8c4.2-2.2,8.9-6.6,11.6-11.3
		c0.9-1.3,1.5-2.8,1.5-4.1c0-0.9-0.2-2.4-1.3-4.6l-33.1-82.5H134z"/>
</g>
</svg>
